# xmcd
#
# Track frame offsets: 
#        182
#        11842
#        27640
#
# Disc length: 522 seconds
#
# Revision: 4
# Processed by: cddbd v1.5.1PL2 Copyright (c) Steve Scherf et al.
# Submitted via: ExactAudioCopy v0.95b4
#
DISCID=20020803
DTITLE=The WoolPackers - HillBilly Rock HillBilly Roll ---- CD Single 
DTITLE=---
DYEAR=1996
DGENRE=Bluegrass
TTITLE0=Hillbilly Rock Hillbilly Roll
TTITLE1=Line Dancing
TTITLE2=Hillbilly Rock,Hillbilly Roll (Instrumental)
EXTD=YEAR: 1996 ID3G: 89
EXTT0=
EXTT1=
EXTT2=
PLAYORDER=
